<?xml version="1.0" encoding="UTF-8"?>
<svg width="28px" height="28px" viewBox="0 0 28 28" version="1.1" xmlns="http://www.w3.org/2000/svg" xmlns:xlink="http://www.w3.org/1999/xlink">
    <!-- Generator: Sketch 41.2 (35397) - http://www.bohemiancoding.com/sketch -->
    <title>图片</title>
    <desc>Created with Sketch.</desc>
    <defs></defs>
    <g id="Page-1" stroke="none" stroke-width="1" fill="none" fill-rule="evenodd">
        <g id="编辑器" transform="translate(-654.000000, -79.000000)">
            <g id="工具tab" transform="translate(0.000000, 64.000000)">
                <g id="按钮2" transform="translate(521.000000, 14.000000)">
                    <g id="图片" transform="translate(132.000000, 1.000000)">
                        <g transform="translate(1.000000, 0.000000)">
                            <path d="M26,17.2720779 L26,4.00494659 C26,2.89702623 25.1023548,2 23.9950534,2 L4.00494659,2 C2.89702623,2 2,2.89764516 2,4.00494659 L2,23.7279221 L9.72792206,16 L10.4350288,16.7071068 L13.2279221,19.5 L20.7279221,12 L21.4350288,12.7071068 L26,17.2720779 Z M26,20.1005051 L26,23.9950534 C26,25.1023548 25.1029738,26 23.9950534,26 L19.7279221,26 L14.6421356,20.9142136 L20.7279221,14.8284271 L26,20.1005051 Z M16.8994949,26 L4.00494659,26 C3.59348931,26 3.21098051,25.8761423 2.89271882,25.6636304 L9.72792206,18.8284271 L16.8994949,26 Z M18.9411255,28 L25.0035095,28 C26.6495018,28 28,26.6584255 28,25.0035095 L28,2.99649048 C28,1.3504982 26.6584255,0 25.0035095,0 L2.99649048,0 C1.3504982,0 0,1.34157448 0,2.99649048 L0,25.0035095 C0,26.6495018 1.34157448,28 2.99649048,28 L18.8994949,28 L18.9203102,28.0208153 L18.9411255,28 Z M9,13 C11.209139,13 13,11.209139 13,9 C13,6.790861 11.209139,5 9,5 C6.790861,5 5,6.790861 5,9 C5,11.209139 6.790861,13 9,13 Z M9,11 C10.1045695,11 11,10.1045695 11,9 C11,7.8954305 10.1045695,7 9,7 C7.8954305,7 7,7.8954305 7,9 C7,10.1045695 7.8954305,11 9,11 Z" fill="#333333"></path>
                            <path d="M9.97606961,18.0369553 L2.88684538,25.6134769 C2.88684538,25.6134769 3.05126732,26.0195683 4.02618468,26.0317053 C10.5192573,26.0195683 17.0205431,26.0317053 17.0205431,26.0317053 L9.97606961,18.0369553 Z" id="Path-3" fill="#E8E8E8"></path>
                            <path d="M20.0381291,14.8401401 L14.6490262,20.0883967 L14.6490262,24.0744174 C14.6490262,25.5304664 15.7172099,26.0180479 16.6706124,26.0180479 C17.6240148,26.0180479 21.0389984,26.0180479 21.0389984,26.0180479 L26.0647466,20.944235 L20.0381291,14.8401401 Z" id="Path-3" fill="#E8E8E8" transform="translate(20.356886, 20.429094) scale(-1, 1) translate(-20.356886, -20.429094) "></path>
                        </g>
                    </g>
                </g>
            </g>
        </g>
    </g>
</svg>