<?xml version="1.0" encoding="UTF-8"?>
<svg width="29px" height="28px" viewBox="0 0 29 28" version="1.1" xmlns="http://www.w3.org/2000/svg" xmlns:xlink="http://www.w3.org/1999/xlink">
    <!-- Generator: Sketch 41.2 (35397) - http://www.bohemiancoding.com/sketch -->
    <title>背景</title>
    <desc>Created with Sketch.</desc>
    <defs></defs>
    <g id="Page-1" stroke="none" stroke-width="1" fill="none" fill-rule="evenodd">
        <g id="编辑器-剧情管理" transform="translate(-508.000000, -63.000000)">
            <g id="工具tab" transform="translate(-2.000000, 48.000000)">
                <g id="按钮2" transform="translate(509.000000, 14.000000)">
                    <g id="背景" transform="translate(1.000000, 1.000000)">
                        <path d="M8.01182254,8.98368906 C6.32935999,8.98368906 5.01154616,10.3015374 5.01154616,11.9834127 C5.01154616,13.6658752 6.32939453,14.9836891 8.01182254,14.9836891 C9.69369778,14.9836891 11.0115462,13.6658407 11.0115462,11.9834127 C11.0115462,10.3015029 9.69369778,8.98368906 8.01182254,8.98368906 Z M8.01170586,12.9836891 C7.44146639,12.9836891 7.01154616,12.5537688 7.01154616,11.9835294 C7.01154616,11.4135905 7.44146639,10.9836891 8.01170586,10.9836891 C8.5816447,10.9836891 9.01154616,11.4136093 9.01154616,11.9835294 C9.01154616,12.5537688 8.5816447,12.9836891 8.01170586,12.9836891 Z" id="Shape" fill="#333333"></path>
                        <path d="M14.0118225,3.98368906 C12.32936,3.98368906 11.0115462,5.30153743 11.0115462,6.98341268 C11.0115462,8.66587523 12.3293945,9.98368906 14.0118225,9.98368906 C15.6936978,9.98368906 17.0115462,8.66584069 17.0115462,6.98341268 C17.0115462,5.3015029 15.6936978,3.98368906 14.0118225,3.98368906 Z M14.0117059,7.98368906 C13.4414664,7.98368906 13.0115462,7.55376883 13.0115462,6.98352935 C13.0115462,6.41359051 13.4414664,5.98368906 14.0117059,5.98368906 C14.5816447,5.98368906 15.0115462,6.4136093 15.0115462,6.98352935 C15.0115462,7.55376883 14.5816447,7.98368906 14.0117059,7.98368906 Z" id="Shape" fill="#333333"></path>
                        <path d="M20.0002764,9 C18.3178138,9 17,10.3178484 17,11.9997236 C17,13.6821862 18.3178484,15 20.0002764,15 C21.6821516,15 23,13.6821516 23,11.9997236 C23,10.3178138 21.6821516,9 20.0002764,9 Z M20.0001597,13 C19.4299202,13 19,12.5700798 19,11.9998403 C19,11.4299015 19.4299202,11 20.0001597,11 C20.5700985,11 21,11.4299202 21,11.9998403 C21,12.5700798 20.5700985,13 20.0001597,13 Z" id="Shape" fill="#333333"></path>
                        <path d="M14.0254907,0.0254747188 C6.3056192,0.0254747188 0.0254747188,6.3056192 0.0254747188,14.0254907 C0.0254747188,21.7453623 6.3056192,28.0255068 14.0254907,28.0255068 C15.585131,28.0255068 16.807201,26.8034367 16.807201,25.2432839 C16.807201,24.5207613 16.5390222,23.8545272 16.0515526,23.3670895 C15.7676117,23.0831487 15.6114331,22.6871757 15.6114331,22.2523102 C15.6114331,21.2800299 16.3444636,20.5469994 17.3161993,20.5469994 L20.0084953,20.5469994 C24.4292326,20.5469994 28.0254747,16.9507573 28.0254747,12.5300199 C28.0255068,5.6351562 21.7453623,0.0254747188 14.0254907,0.0254747188 Z M19.5973138,18.7951605 L17.0893934,18.7951605 C15.4101906,18.7951605 13.9250301,20.2371876 13.7303696,21.6727601 C13.628978,22.4204977 13.6517544,23.0820675 13.831665,23.4588623 C13.9986352,23.8085554 14.4987081,24.3092161 14.6802386,24.6574499 C14.8577881,24.9980469 14.9278296,26.0254428 14.0255056,26.0254428 C7.40880997,26.0254428 2.02550669,20.6421395 2.02550669,14.0254439 C2.02550669,7.40874826 7.40878023,2.02547472 14.0254758,2.02547472 C20.6421714,2.02547472 26.0254747,6.7857306 26.0254747,12.6367954 C26.025445,16.190016 23.1505344,18.7951605 19.5973138,18.7951605 Z" id="Shape" fill="#333333"></path>
                        <circle id="Oval-16" fill="#D8D8D8" cx="8" cy="12" r="1"></circle>
                        <circle id="Oval-16" fill="#D8D8D8" cx="14" cy="7" r="1"></circle>
                        <circle id="Oval-16" fill="#D8D8D8" cx="20" cy="12" r="1"></circle>
                    </g>
                </g>
            </g>
        </g>
    </g>
</svg>