<?xml version="1.0" encoding="UTF-8"?>
<svg width="28px" height="28px" viewBox="0 0 28 28" version="1.1" xmlns="http://www.w3.org/2000/svg" xmlns:xlink="http://www.w3.org/1999/xlink">
    <!-- Generator: Sketch 41.2 (35397) - http://www.bohemiancoding.com/sketch -->
    <title>音乐</title>
    <desc>Created with Sketch.</desc>
    <defs></defs>
    <g id="Page-1" stroke="none" stroke-width="1" fill="none" fill-rule="evenodd">
        <g id="编辑器" transform="translate(-1064.000000, -79.000000)">
            <g id="工具tab" transform="translate(0.000000, 64.000000)">
                <g id="按钮2" transform="translate(521.000000, 14.000000)">
                    <g id="音乐" transform="translate(543.000000, 1.000000)">
                        <g>
                            <path d="M6.76331301,24 C6.28860866,23.4705089 6,22.7723669 6,22.0092478 L6,2.99075223 C6,1.33900538 7.34308127,0 9.00138694,0 L24.9986131,0 C26.6562333,0 28,1.34410858 28,2.99075223 L28,22.0092478 C28,23.3111965 27.1655447,24.4188392 26,24.8295901 L26,4.00359486 C26,2.88976324 25.1067681,2 24.0049107,2 L9.99508929,2 C8.8926228,2 8,2.89703997 8,4.00359486 L8,24.4144766 L8,24 L6.76331301,24 Z" id="Combined-Shape" fill="#333333"></path>
                            <path d="M24,26 C26.209139,26 28,24.209139 28,22 C28,19.790861 26.209139,18 24,18 C21.790861,18 20,19.790861 20,22 C20,24.209139 21.790861,26 24,26 Z M24,24 C25.1045695,24 26,23.1045695 26,22 C26,20.8954305 25.1045695,20 24,20 C22.8954305,20 22,20.8954305 22,22 C22,23.1045695 22.8954305,24 24,24 Z" id="Combined-Shape" fill="#333333"></path>
                            <path d="M4,28 C6.209139,28 8,26.209139 8,24 C8,21.790861 6.209139,20 4,20 C1.790861,20 0,21.790861 0,24 C0,26.209139 1.790861,28 4,28 Z M4,26 C5.1045695,26 6,25.1045695 6,24 C6,22.8954305 5.1045695,22 4,22 C2.8954305,22 2,22.8954305 2,24 C2,25.1045695 2.8954305,26 4,26 Z" id="Combined-Shape" fill="#333333"></path>
                            <circle id="Oval" fill="#E8E8E8" cx="24" cy="22" r="2"></circle>
                            <circle id="Oval" fill="#E8E8E8" cx="4" cy="24" r="2"></circle>
                        </g>
                    </g>
                </g>
            </g>
        </g>
    </g>
</svg>