<?xml version="1.0" encoding="UTF-8"?>
<svg width="28px" height="28px" viewBox="0 0 28 28" version="1.1" xmlns="http://www.w3.org/2000/svg" xmlns:xlink="http://www.w3.org/1999/xlink">
    <!-- Generator: Sketch 41.2 (35397) - http://www.bohemiancoding.com/sketch -->
    <title>发布游戏</title>
    <desc>Created with Sketch.</desc>
    <defs></defs>
    <g id="Page-1" stroke="none" stroke-width="1" fill="none" fill-rule="evenodd">
        <g id="编辑器-剧情管理" transform="translate(-1618.000000, -64.000000)">
            <g id="工具tab" transform="translate(0.000000, 49.000000)">
                <g id="Group" transform="translate(1543.000000, 15.000000)">
                    <g id="发布游戏" transform="translate(75.000000, 0.000000)">
                        <path d="M19.5017548,-1.77635684e-15 L2.99649048,-1.77635684e-15 C1.3504982,-1.77635684e-15 0,1.34157448 0,2.99649048 L0,25.0035095 C0,26.6495018 1.34157448,28 2.99649048,28 L25.0035095,28 C26.6495018,28 28,26.6584255 28,25.0035095 L28,8.49824524 L28,14 L26,14 L26,23.9950534 C26,25.1023548 25.1029738,26 23.9950534,26 L4.00494659,26 C2.89764516,26 2,25.1029738 2,23.9950534 L2,4.00494659 C2,2.89764516 2.89702623,2 4.00494659,2 L14,2 L14,-1.77635684e-15 L19.5017548,-1.77635684e-15 Z M25.9946091,7.97092287 L25.9444776,3.20842179 L10.7546057,17.6463198 C10.3535529,18.0473725 9.70184227,18.0473725 9.30078954,17.6463198 C8.89973682,17.2452671 8.89973682,16.643688 9.30078954,16.2927669 L24.3402667,1.95513203 L19.9788183,2.00526362 C19.4273708,2.00526362 18.9761865,1.5540793 18.9761865,1.00263181 C18.9761865,0.451184314 19.4273708,-1.77635684e-15 19.9788183,-1.77635684e-15 L26.9471094,-1.77635684e-15 C27.4985569,-1.77635684e-15 27.9497412,0.451184314 27.9497412,0.952500218 L27.9497412,7.97092287 C27.9998728,8.52237037 27.5486884,8.97355468 26.997241,8.97355468 C26.4457935,8.97355468 25.9946091,8.52237037 25.9946091,7.97092287 Z" id="Combined-Shape" fill="#333333"></path>
                        <path d="M25.5986294,25.1989675 C23.0813981,23.8720402 18.8258453,23 14,23 C9.17414706,23 4.91858845,23.872043 2.40135863,25.1989738 C2.76717518,25.6855147 3.34930956,26 4.00494659,26 L23.9950534,26 C24.6509404,26 25.232917,25.6854095 25.5986294,25.1989675 Z" id="Combined-Shape" fill="#E8E8E8"></path>
                    </g>
                </g>
            </g>
        </g>
    </g>
</svg>