<?xml version="1.0" encoding="UTF-8"?>
<svg width="28px" height="28px" viewBox="0 0 28 28" version="1.1" xmlns="http://www.w3.org/2000/svg" xmlns:xlink="http://www.w3.org/1999/xlink">
    <!-- Generator: Sketch 41.2 (35397) - http://www.bohemiancoding.com/sketch -->
    <title>选项</title>
    <desc>Created with Sketch.</desc>
    <defs></defs>
    <g id="Page-1" stroke="none" stroke-width="1" fill="none" fill-rule="evenodd">
        <g id="编辑器" transform="translate(-958.000000, -79.000000)">
            <g id="工具tab" transform="translate(0.000000, 64.000000)">
                <g id="按钮2" transform="translate(521.000000, 14.000000)">
                    <g id="选项" transform="translate(437.000000, 1.000000)">
                        <g>
                            <path d="M4,8 C6.209139,8 8,6.209139 8,4 C8,1.790861 6.209139,0 4,0 C1.790861,0 0,1.790861 0,4 C0,6.209139 1.790861,8 4,8 Z M4,6 C5.1045695,6 6,5.1045695 6,4 C6,2.8954305 5.1045695,2 4,2 C2.8954305,2 2,2.8954305 2,4 C2,5.1045695 2.8954305,6 4,6 Z M4,18 C6.209139,18 8,16.209139 8,14 C8,11.790861 6.209139,10 4,10 C1.790861,10 0,11.790861 0,14 C0,16.209139 1.790861,18 4,18 Z M4,16 C5.1045695,16 6,15.1045695 6,14 C6,12.8954305 5.1045695,12 4,12 C2.8954305,12 2,12.8954305 2,14 C2,15.1045695 2.8954305,16 4,16 Z M4,28 C6.209139,28 8,26.209139 8,24 C8,21.790861 6.209139,20 4,20 C1.790861,20 0,21.790861 0,24 C0,26.209139 1.790861,28 4,28 Z M4,26 C5.1045695,26 6,25.1045695 6,24 C6,22.8954305 5.1045695,22 4,22 C2.8954305,22 2,22.8954305 2,24 C2,25.1045695 2.8954305,26 4,26 Z M10,4 C10,3.44771525 10.4449463,3 10.9933977,3 L27.0066023,3 C27.5552407,3 28,3.44386482 28,4 C28,4.55228475 27.5550537,5 27.0066023,5 L10.9933977,5 C10.4447593,5 10,4.55613518 10,4 Z M10,14 C10,13.4477153 10.4449463,13 10.9933977,13 L27.0066023,13 C27.5552407,13 28,13.4438648 28,14 C28,14.5522847 27.5550537,15 27.0066023,15 L10.9933977,15 C10.4447593,15 10,14.5561352 10,14 Z M10,24 C10,23.4477153 10.4449463,23 10.9933977,23 L27.0066023,23 C27.5552407,23 28,23.4438648 28,24 C28,24.5522847 27.5550537,25 27.0066023,25 L10.9933977,25 C10.4447593,25 10,24.5561352 10,24 Z" fill="#333333"></path>
                            <circle id="Oval" fill="#E8E8E8" cx="4" cy="4" r="2"></circle>
                            <circle id="Oval" fill="#E8E8E8" cx="4" cy="14" r="2"></circle>
                            <circle id="Oval" fill="#E8E8E8" cx="4" cy="24" r="2"></circle>
                        </g>
                    </g>
                </g>
            </g>
        </g>
    </g>
</svg>