<?xml version="1.0" encoding="utf-8"?>
<!-- Generator: Adobe Illustrator 21.0.0, SVG Export Plug-In . SVG Version: 6.00 Build 0)  -->
<svg version="1.1" id="图层_1" xmlns="http://www.w3.org/2000/svg" xmlns:xlink="http://www.w3.org/1999/xlink" x="0px" y="0px"
	 viewBox="0 0 28 28" style="enable-background:new 0 0 28 28;" xml:space="preserve">
<style type="text/css">
	.st0{fill:#E8E8E8;}
	.st1{fill:#333333;}
</style>
<title>存为备份</title>
<desc>Created with Sketch.</desc>
<g id="Page-1">
	<g id="编辑器-剧情管理" transform="translate(-1552.000000, -64.000000)">
		<g id="工具tab" transform="translate(0.000000, 49.000000)">
			<g id="Group" transform="translate(1543.000000, 15.000000)">
				<rect id="Rectangle-38" x="17" y="21" class="st0" width="12" height="5"/>
				<path class="st1" d="M34,0H12c-1.7,0-3,1.4-3,3v22c0,1.7,1.4,3,3,3h22c1.7,0,3-1.4,3-3V3C37,1.4,35.6,0,34,0z M35,24
					c0,1.1-0.9,2-2,2H13c-1.1,0-2-0.9-2-2V4c0-1.1,0.9-2,2-2h20c1.1,0,2,0.9,2,2V24z"/>
				<path class="st1" d="M29,19H17c-1.1,0-2,0.9-2,2v5c0,1.1,0.9,2,2,2h12c1.1,0,2-0.9,2-2v-5C31,19.9,30.1,19,29,19z M29,26H17v-5
					h12V26z"/>
				<path class="st1" d="M24.4,0h-9c-0.8,0-1.5,0.6-1.5,1.3v3.3c0,0.7,0.7,1.3,1.5,1.3h9c0.8,0,1.5-0.6,1.5-1.3V1.3
					C25.9,0.6,25.3,0,24.4,0z M23.9,4h-8V2h8V4z"/>
			</g>
		</g>
	</g>
</g>
</svg>
